# xmcd
#
# Track frame offsets:
#	150
#	13812
#	29762
#	46107
#	61735
#	77195
#	92702
#	106692
#	125477
#	136182
#	149890
#	166585
#	187287
#	203325
#	217790
#	234492
#	254707
#
# Disc length: 3580 seconds
#
# Revision: 1
# Processed by: cddbd v1.5.2PL0 Copyright (c) Steve Scherf et al.
# Submitted via: audiograbber 1.83.01
#
DISCID=ec0dfa11
DTITLE=Guru - Jazzmatazz
DYEAR=2007
DGENRE=Hip-Hop Acid Jazz
TTITLE0=GURU feat Slum Village - Cuz Im Jazzy
TTITLE1=GURU feat Common and Bob James - State of Clarity
TTITLE2=GURU feat Damian "JR Gong" Marley - Stand Up
TTITLE3=GURU - Look to the Sun
TTITLE4=GURU feat Kem - Connection
TTITLE5=GURU feat Vivian Green - Fine and Free
TTITLE6=GURU feat Raheem Devaughn - Wait on Me
TTITLE7=GURU feat Bobby Valentino - International
TTITLE8=GURU feat Ronnie Laws - This is Art
TTITLE9=GURU feat Dionne Farris - Fly Magnetic
TTITLE10=GURU feat Omar - The Jazz Style
TTITLE11=GURU feat Shelley Harland - Follow the Signs
TTITLE12=GURU feat Brownman - Universal Struggle
TTITLE13=GURU feat Blackalicious - Infinate
TTITLE14=GURU feat Caron Wheeler - Kissed the World
TTITLE15=GURU feat David Sanborn - Living Legend
TTITLE16=GURU feat  Common and Bob James - State of Clarity (Remix)
EXTD=Track 17 AUS only Bonus Track
EXTT0=
EXTT1=
EXTT2=
EXTT3=
EXTT4=
EXTT5=
EXTT6=
EXTT7=
EXTT8=
EXTT9=
EXTT10=
EXTT11=
EXTT12=
EXTT13=
EXTT14=
EXTT15=
EXTT16=AUS only bonus track
PLAYORDER=
